<svg xmlns="http://www.w3.org/2000/svg" xmlns:xlink="http://www.w3.org/1999/xlink" width="14.12" height="14.155" viewBox="0 0 14.12 14.155"><defs><clipPath id="a"><rect width="14.12" height="14.155" fill="#fff"/></clipPath></defs><g clip-path="url(#a)"><path d="M10.315,11.306A6.345,6.345,0,0,1,1.729,2a6.3,6.3,0,0,1,8.4-.724,6.168,6.168,0,0,1,2.49,4.277,6.284,6.284,0,0,1-1.359,4.8,1.044,1.044,0,0,1,.168.113q1.222,1.219,2.442,2.442a.719.719,0,0,1,.232.688.7.7,0,0,1-1.152.389c-.071-.061-.135-.13-.2-.2q-1.168-1.169-2.334-2.339a1.117,1.117,0,0,1-.1-.141m.953-4.943A4.931,4.931,0,1,0,6.33,11.3a4.924,4.924,0,0,0,4.938-4.938" transform="translate(0 -0.001)" fill="#fff"/></g></svg>