<svg xmlns="http://www.w3.org/2000/svg" xmlns:xlink="http://www.w3.org/1999/xlink" width="39.088" height="39.023" viewBox="0 0 39.088 39.023"><defs><clipPath id="a"><rect width="39.088" height="39.023" fill="#fff"/></clipPath></defs><g clip-path="url(#a)"><path d="M0,20.735V18.3c.023-.123.046-.246.068-.369.223-1.247.34-2.523.685-3.735a19.539,19.539,0,0,1,38.038,1.959c.119.711.2,1.43.3,2.144v2.439c-.022.1-.049.2-.064.295-.133.9-.216,1.815-.4,2.707A19.532,19.532,0,0,1,22.949,38.723c-.725.117-1.455.2-2.183.3H18.322c-.085-.021-.169-.048-.255-.061-.892-.13-1.792-.216-2.675-.392A19.526,19.526,0,0,1,.305,22.953C.186,22.216.1,21.474,0,20.735M19.561,3.056A16.46,16.46,0,1,0,36.034,19.523,16.5,16.5,0,0,0,19.561,3.056" transform="translate(0 0)" fill="#fff"/><path d="M121.459,193.762l8.3,8.287,8.329-8.314,2.138,2.139-10.442,10.421-10.439-10.421,2.116-2.112" transform="translate(-110.232 -178.945)" fill="#fff"/></g></svg>